<svg xmlns="http://www.w3.org/2000/svg" viewBox="0 0 512 512">
  <path
    fill="#000"
    fill-rule="evenodd"
    d="M81 284C81 268 112 250 163 240C187 171 228 105 277 90C321 76 365 89 383 121C405 160 391 222 371 279C360 310 347 338 347 351C347 367 350 371 356 371C369 371 392 349 416 322C425 312 431 315 431 328C433 353 414 383 390 401C367 419 337 425 315 420C289 415 280 395 285 363C289 339 297 312 304 283C272 281 240 280 209 280C204 311 202 344 202 378C202 402 190 414 165 424C143 433 129 421 129 391C129 361 136 321 147 285C122 288 97 294 86 292C82 291 80 289 81 284ZM219 237C234 187 257 153 288 148C310 144 324 150 328 166C334 185 327 213 319 238Z"
  />
</svg>
